<svg xmlns="http://www.w3.org/2000/svg" xmlns:xlink="http://www.w3.org/1999/xlink" width="318" height="350" version="1.1" viewBox="0 0 318 350"><title>Group 2</title><desc>Created with Sketch.</desc><defs><linearGradient id="linearGradient-1" x1="-83.235%" x2="140.023%" y1="106.401%" y2="-13.203%"><stop offset="0%" stop-color="#F8FAFC"/><stop offset="21.797%" stop-color="#F8FAFC"/><stop offset="100%" stop-color="#BBDBF5"/><stop offset="100%" stop-color="#B9DAF5"/></linearGradient></defs><g id="Page-1" fill="none" fill-rule="evenodd" stroke="none" stroke-width="1"><g id="04-docs-start-copy-3" transform="translate(-714.000000, -205.000000)"><g id="Group-2" transform="translate(714.000000, 205.000000)"><path id="Rectangle-3-Copy" stroke="#B9DAF5" d="M159.9,41.23566 L29.5,106.216315 L29.5,268.671884 L159.9,333.652539 L290.3,268.671884 L290.3,106.216315 L159.9,41.23566 Z"/><polygon id="Rectangle-3-Copy-2" fill="url(#linearGradient-1)" points="129.8 186.335 129.8 349.671 0 284.336 0 121"/><path id="Rectangle-3-Copy-4" stroke="#338CD6" d="M317.3,186.64261 L188.5,121.811441 L188.5,284.028197 L317.3,348.859366 L317.3,186.64261 Z" transform="translate(252.900000, 235.335404) scale(1, -1) translate(-252.900000, -235.335404)"/><path id="Rectangle-3" stroke="#B9DAF5" d="M159.9,41.2359725 L30.1185393,106.090062 L159.9,170.944152 L289.681461,106.090062 L159.9,41.2359725 Z"/><path id="Rectangle-3-Copy-3" stroke="#338CD6" d="M159.9,0.558953879 L30.1185393,65.4130435 L159.9,130.267133 L289.681461,65.4130435 L159.9,0.558953879 Z"/><path id="Line" fill-rule="nonzero" stroke="#B9DAF5" stroke-linecap="square" d="M160.175,170.953416 L160.175,332.562112"/><path id="Line-2-Copy-3" fill-rule="nonzero" stroke="#C7CFDA" stroke-dasharray="2 4" stroke-linecap="square" d="M160.358333,130.484509 L160.358333,165.798482"/><path id="Line-2-Copy-4" fill-rule="nonzero" stroke="#C7CFDA" stroke-dasharray="2 4" stroke-linecap="square" d="M290.158333,68.178117 L290.158333,103.49209"/><path id="Line-2" fill-rule="nonzero" stroke="#C7CFDA" stroke-dasharray="2 4" stroke-linecap="square" d="M133.55,185.742236 L159.95,172.549689"/><path id="Line-2-Copy" fill-rule="nonzero" stroke="#C7CFDA" stroke-dasharray="2 4" stroke-linecap="square" d="M133.55,348.742236 L159.95,335.549689"/><path id="Line-2" fill-rule="nonzero" stroke="#C7CFDA" stroke-dasharray="2 4" stroke-linecap="square" d="M292.35,283.586957 L318.75,270.39441" transform="translate(305.550000, 276.990683) scale(1, -1) translate(-305.550000, -276.990683)"/><path id="Line-2-Copy-2" fill-rule="nonzero" stroke="#C7CFDA" stroke-dasharray="2 4" stroke-linecap="square" d="M162.55,348.742236 L188.95,335.549689" transform="translate(175.750000, 342.145963) scale(1, -1) translate(-175.750000, -342.145963)"/><path id="Line-2-Copy" fill-rule="nonzero" stroke="#C7CFDA" stroke-dasharray="2 4" stroke-linecap="square" d="M291.55,119.742236 L317.95,106.549689" transform="translate(304.750000, 113.145963) scale(1, -1) translate(-304.750000, -113.145963)"/><path id="Line-2-Copy-5" fill-rule="nonzero" stroke="#C7CFDA" stroke-dasharray="2 4" stroke-linecap="square" d="M162.55,185.742236 L188.95,172.549689" transform="translate(175.750000, 179.145963) scale(1, -1) translate(-175.750000, -179.145963)"/></g></g></g></svg>