<svg width="1212" height="596" viewBox="0 0 1212 596" fill="none"
    xmlns="http://www.w3.org/2000/svg">
    <rect x="1008.49" y="17.5" width="186.011" height="62.1426" rx="9.5" stroke="#9FB3C8" />
    <path d="M1043 53C1043 49.6863 1040.31 47 1037 47H992C988.686 47 986 49.6863 986 53V96C986 99.3137 988.686 102 992 102H1037C1040.31 102 1043 99.3137 1043 96V53Z" fill="#FFE8D9" />
    <path d="M1058 47.5H1153C1156.04 47.5 1158.5 49.9624 1158.5 53V167C1158.5 170.038 1156.04 172.5 1153 172.5H1058C1054.96 172.5 1052.5 170.038 1052.5 167V53C1052.5 49.9624 1054.96 47.5 1058 47.5Z" fill="#FFFEFD" stroke="#F35627" />
    <path d="M1104.4 69H1074.6C1074.43 69 1074.3 68.9444 1074.17 68.8611C1074.07 68.7778 1074 68.6389 1074 68.5C1074 68.3611 1074.07 68.25 1074.17 68.1389C1074.27 68.0556 1074.43 68 1074.6 68H1104.4C1104.57 68 1104.7 68.0556 1104.83 68.1389C1104.93 68.2222 1105 68.3611 1105 68.5C1105 68.6389 1104.93 68.75 1104.83 68.8611C1104.7 68.9444 1104.57 69 1104.4 69Z" fill="#F35627" />
    <path d="M1127.81 74.6149H1080.19C1080.06 74.6149 1079.95 74.5587 1079.84 74.4744C1079.75 74.3901 1079.7 74.2497 1079.7 74.1092C1079.7 73.9687 1079.75 73.8564 1079.84 73.744C1079.92 73.6597 1080.06 73.6035 1080.19 73.6035H1127.81C1127.94 73.6035 1128.05 73.6597 1128.16 73.744C1128.25 73.8283 1128.3 73.9687 1128.3 74.1092C1128.3 74.2497 1128.25 74.362 1128.16 74.4744C1128.05 74.5587 1127.92 74.6149 1127.81 74.6149Z" fill="#F35627" />
    <path d="M1143.4 100H1067.6C1067.44 100 1067.3 99.9444 1067.17 99.8611C1067.07 99.7778 1067 99.6389 1067 99.5C1067 99.3611 1067.07 99.25 1067.17 99.1389C1067.27 99.0556 1067.44 99 1067.6 99H1143.4C1143.56 99 1143.7 99.0556 1143.83 99.1389C1143.93 99.2222 1144 99.3611 1144 99.5C1143.97 99.6389 1143.9 99.75 1143.8 99.8333C1143.7 99.9167 1143.56 100 1143.4 100Z" fill="#F35627" />
    <path d="M1145.4 102H1069.6C1069.44 102 1069.3 101.944 1069.17 101.861C1069.07 101.778 1069 101.639 1069 101.5C1069 101.361 1069.07 101.25 1069.17 101.139C1069.27 101.056 1069.44 101 1069.6 101H1145.4C1145.56 101 1145.7 101.056 1145.83 101.139C1145.93 101.222 1146 101.361 1146 101.5C1145.97 101.639 1145.9 101.75 1145.8 101.833C1145.7 101.917 1145.56 102 1145.4 102Z" fill="#FFE8D9" />
    <path d="M1145.4 116H1069.6C1069.44 116 1069.3 115.944 1069.17 115.861C1069.07 115.778 1069 115.639 1069 115.5C1069 115.361 1069.07 115.25 1069.17 115.139C1069.27 115.056 1069.44 115 1069.6 115H1145.4C1145.56 115 1145.7 115.056 1145.83 115.139C1145.93 115.222 1146 115.361 1146 115.5C1145.97 115.639 1145.9 115.75 1145.8 115.833C1145.7 115.917 1145.56 116 1145.4 116Z" fill="#FFE8D9" />
    <path d="M1145.4 135H1069.6C1069.44 135 1069.3 134.944 1069.17 134.861C1069.07 134.778 1069 134.639 1069 134.5C1069 134.361 1069.07 134.25 1069.17 134.139C1069.27 134.056 1069.44 134 1069.6 134H1145.4C1145.56 134 1145.7 134.056 1145.83 134.139C1145.93 134.222 1146 134.361 1146 134.5C1145.97 134.639 1145.9 134.75 1145.8 134.833C1145.7 134.917 1145.56 135 1145.4 135Z" fill="#FFE8D9" />
    <path d="M1146.4 155H1070.6C1070.44 155 1070.3 154.944 1070.17 154.861C1070.07 154.778 1070 154.639 1070 154.5C1070 154.361 1070.07 154.25 1070.17 154.139C1070.27 154.056 1070.44 154 1070.6 154H1146.4C1146.56 154 1146.7 154.056 1146.83 154.139C1146.93 154.222 1147 154.361 1147 154.5C1146.97 154.639 1146.9 154.75 1146.8 154.833C1146.7 154.917 1146.56 155 1146.4 155Z" fill="#FFE8D9" />
    <path d="M1142.39 118H1065.61C1065.44 118 1065.31 117.944 1065.17 117.861C1065.07 117.778 1065 117.639 1065 117.5C1065 117.361 1065.07 117.25 1065.17 117.139C1065.27 117.056 1065.44 117 1065.61 117H1142.39C1142.56 117 1142.69 117.056 1142.83 117.139C1142.93 117.222 1143 117.361 1143 117.5C1143 117.639 1142.93 117.75 1142.83 117.861C1142.73 117.944 1142.56 118 1142.39 118Z" fill="#F35627" />
    <path d="M1142.39 136H1065.61C1065.44 136 1065.31 135.944 1065.17 135.861C1065.07 135.778 1065 135.639 1065 135.5C1065 135.361 1065.07 135.25 1065.17 135.139C1065.27 135.056 1065.44 135 1065.61 135H1142.39C1142.56 135 1142.69 135.056 1142.83 135.139C1142.93 135.222 1143 135.361 1143 135.5C1143 135.639 1142.93 135.75 1142.83 135.861C1142.69 135.944 1142.56 136 1142.39 136Z" fill="#F35627" />
    <path d="M1140.39 154H1063.61C1063.44 154 1063.31 153.944 1063.17 153.861C1063.07 153.778 1063 153.639 1063 153.5C1063 153.361 1063.07 153.25 1063.17 153.139C1063.27 153.056 1063.44 153 1063.61 153H1140.39C1140.56 153 1140.69 153.056 1140.83 153.139C1140.93 153.222 1141 153.361 1141 153.5C1140.97 153.639 1140.9 153.75 1140.8 153.833C1140.66 153.917 1140.52 153.972 1140.39 154Z" fill="#F35627" />
    <path d="M1098 160C1101.3 160 1104 157.3 1104 154C1104 150.7 1101.3 148 1098 148C1094.7 148 1092 150.667 1092 154C1092 157.333 1094.67 160 1098 160Z" fill="#FFE8D9" />
    <path d="M1102.5 156C1102.5 159.024 1100.02 161.5 1097 161.5C1093.94 161.5 1091.5 159.057 1091.5 156C1091.5 152.945 1093.97 150.5 1097 150.5C1100.02 150.5 1102.5 152.976 1102.5 156Z" stroke="#F35627" />
    <path d="M1113.5 141C1117.07 141 1120 138.333 1120 135C1120 131.7 1117.07 129 1113.5 129C1109.93 129 1107 131.667 1107 135C1107 138.3 1109.93 141 1113.5 141Z" fill="#829AB1" />
    <path d="M1079 124C1082.3 124 1085 121.3 1085 118C1085 114.7 1082.3 112 1079 112C1075.7 112 1073 114.667 1073 118C1073.03 121.333 1075.7 124 1079 124Z" fill="#829AB1" />
    <path d="M987 50.5H1032C1035.04 50.5 1037.5 52.9624 1037.5 56V99C1037.5 102.038 1035.04 104.5 1032 104.5H987C983.962 104.5 981.5 102.038 981.5 99V56C981.5 52.9624 983.962 50.5 987 50.5Z" stroke="#486581" />
    <path d="M1079 0.5H1124C1127.04 0.5 1129.5 2.96243 1129.5 6V28C1129.5 31.0376 1127.04 33.5 1124 33.5H1079C1075.96 33.5 1073.5 31.0376 1073.5 28V6C1073.5 2.96243 1075.96 0.5 1079 0.5Z" fill="#FFFEFD" stroke="#F35627" />
    <path d="M1207.92 38.0635C1207.92 34.7498 1205.23 32.0635 1201.92 32.0635H1177.92C1174.6 32.0635 1171.92 34.7498 1171.92 38.0635V63.0635C1171.92 66.3772 1174.6 69.0635 1177.92 69.0635H1201.92C1205.23 69.0635 1207.92 66.3772 1207.92 63.0635V38.0635Z" fill="#D9E2EC" />
    <path d="M1181.13 29.6816H1205.13C1208.16 29.6816 1210.63 32.1441 1210.63 35.1816V60.1816C1210.63 63.2192 1208.16 65.6816 1205.13 65.6816H1181.13C1178.09 65.6816 1175.63 63.2192 1175.63 60.1816V35.1816C1175.63 32.1441 1178.09 29.6816 1181.13 29.6816Z" stroke="#01182F" />
    <rect x="1079" y="5" width="9" height="8" rx="1" fill="#ECECF0" />
    <rect x="1090.56" y="4" width="9" height="8" rx="1" fill="#FFE8D9" />
    <rect x="1102.12" y="8" width="9" height="8" rx="1" fill="#ECECF0" />
    <rect x="1117.25" y="4" width="9" height="8" rx="1" fill="#FFE8D9" />
    <path d="M1098.01 14H1091.11C1090.96 14 1090.84 13.9392 1090.71 13.8479C1090.62 13.7567 1090.56 13.6046 1090.56 13.4525V6.54753C1090.56 6.39543 1090.62 6.27376 1090.71 6.15209C1090.8 6.06084 1090.96 6 1091.11 6H1098.01C1098.17 6 1098.29 6.06084 1098.41 6.15209C1098.5 6.24335 1098.56 6.39543 1098.56 6.54753V13.4525C1098.56 13.6046 1098.5 13.7262 1098.41 13.8479C1098.29 13.9392 1098.14 14 1098.01 14ZM1091.66 12.9049H1097.47V7.09506H1091.66V12.9049Z" fill="#F35627" />
    <path d="M1111.51 14H1103.73C1103.56 14 1103.43 13.9392 1103.29 13.8479C1103.19 13.7567 1103.12 13.6046 1103.12 13.4525V6.54753C1103.12 6.39543 1103.19 6.27376 1103.29 6.15209C1103.39 6.06084 1103.56 6 1103.73 6H1111.51C1111.68 6 1111.82 6.06084 1111.95 6.15209C1112.06 6.24335 1112.12 6.39543 1112.12 6.54753V13.4525C1112.12 13.6046 1112.06 13.7262 1111.95 13.8479C1111.82 13.9392 1111.68 14 1111.51 14ZM1104.34 12.9049H1110.9V7.09506H1104.34V12.9049Z" fill="#F35627" />
    <path d="M1123.63 14H1115.86C1115.69 14 1115.55 13.9392 1115.42 13.8479C1115.31 13.7567 1115.25 13.6046 1115.25 13.4525V6.54753C1115.25 6.39543 1115.31 6.27376 1115.42 6.15209C1115.52 6.06084 1115.69 6 1115.86 6H1123.63C1123.8 6 1123.94 6.06084 1124.07 6.15209C1124.18 6.24335 1124.25 6.39543 1124.25 6.54753V13.4525C1124.25 13.6046 1124.18 13.7262 1124.07 13.8479C1123.94 13.9392 1123.8 14 1123.63 14ZM1116.51 12.9049H1123.05V7.09506H1116.51V12.9049Z" fill="#F35627" />
    <path d="M1122.95 24H1079.91C1079.76 24 1079.64 23.9444 1079.52 23.8611C1079.43 23.7778 1079.37 23.6389 1079.37 23.5C1079.37 23.3611 1079.43 23.25 1079.52 23.1389C1079.61 23.0556 1079.76 23 1079.91 23H1122.95C1123.11 23 1123.23 23.0556 1123.35 23.1389C1123.44 23.2222 1123.5 23.3611 1123.5 23.5C1123.5 23.6389 1123.44 23.75 1123.35 23.8611C1123.23 23.9444 1123.11 24 1122.95 24Z" fill="#F35627" />
    <path d="M1122.95 27.9952H1079.91C1079.76 27.9952 1079.64 27.9399 1079.52 27.857C1079.43 27.774 1079.37 27.6358 1079.37 27.4976C1079.37 27.3594 1079.43 27.2488 1079.52 27.1382C1079.61 27.0553 1079.76 27 1079.91 27H1122.95C1123.11 27 1123.23 27.0553 1123.35 27.1382C1123.44 27.2211 1123.5 27.3594 1123.5 27.4976C1123.5 27.6358 1123.44 27.7464 1123.35 27.857C1123.23 27.9399 1123.11 27.9952 1122.95 27.9952Z" fill="#F35627" />
    <path d="M1203.08 49.6493C1203.22 48.9221 1203.28 48.1602 1203.32 47.3983H1203.55L1205.5 46.3939L1205.13 44.1428L1202.95 43.7619H1202.81C1202.58 42.9654 1202.21 42.2035 1201.74 41.5108H1201.87L1202.95 39.5022L1201.37 37.8745L1199.32 38.7403C1198.18 37.9437 1196.9 37.3896 1195.56 37.1125H1195.7L1194.96 35H1192.67L1191.94 37.1125H1192.07C1191.33 37.2511 1190.59 37.4935 1189.89 37.8745L1188.21 36.4892L1186.26 37.7359L1186.86 39.987H1187C1186.5 40.5411 1186.06 41.1991 1185.66 41.8571H1183.47L1182.74 44.1082L1184.31 45.355C1184.31 45.9783 1184.18 46.4632 1184.18 47.0866V47.9524L1182.5 49.0606L1183.1 51.3117L1185.29 51.5541C1185.59 52.2468 1186.03 52.8701 1186.5 53.4243H1186.36L1185.52 55.5368L1187.34 57.026L1189.28 55.7792L1191.33 56.645H1191.2L1191.8 58.7576L1193.98 59L1194.96 56.8875H1194.82L1197.11 56.2641L1198.55 57.8918L1200.6 56.7835L1200.36 54.5325H1200.13C1200.66 54.013 1201.17 53.4242 1201.57 52.8009L1201.81 53.1818H1203.99L1204.83 51.0693L1203.25 49.5801H1203.08V49.6493ZM1194.02 53.3896C1192.81 53.4242 1191.63 53.0779 1190.63 52.3853C1189.62 51.7273 1188.81 50.7576 1188.34 49.6147C1187.87 48.4719 1187.74 47.2251 1187.94 46.013C1188.14 44.8009 1188.71 43.6926 1189.55 42.7922C1190.39 41.9264 1191.46 41.303 1192.64 41.0606C1193.82 40.8182 1195.02 40.9221 1196.13 41.4069C1197.24 41.8571 1198.18 42.6883 1198.85 43.6926C1199.52 44.7316 1199.89 45.9437 1199.89 47.1558C1199.93 47.9524 1199.76 48.7836 1199.49 49.5455C1199.19 50.3074 1198.75 51 1198.21 51.5541C1197.64 52.1429 1197.01 52.5931 1196.27 52.9048C1195.59 53.2165 1194.82 53.3896 1194.02 53.3896Z" fill="#01182F" />
    <path d="M1030.37 81H1024.63C1024.45 81 1024.31 80.9444 1024.17 80.8611C1024.07 80.7778 1024 80.6389 1024 80.5C1024 80.3611 1024.07 80.25 1024.17 80.1389C1024.28 80.0556 1024.45 80 1024.63 80H1030.37C1030.55 80 1030.69 80.0556 1030.83 80.1389C1030.93 80.2222 1031 80.3611 1031 80.5C1031 80.6389 1030.93 80.75 1030.83 80.8611C1030.72 80.9444 1030.55 81 1030.37 81Z" fill="#486581" />
    <path d="M1022.59 74C1022.37 74 1022.15 73.747 1022.03 73.3494C1021.9 72.9518 1022.25 72.6988 1022.47 72.6988L1030.25 71C1030.59 71 1030.94 71.253 1030.94 71.506C1030.97 71.5783 1031 71.6868 1031 71.7952C1031 71.9036 1030.97 71.9759 1030.94 72.0843C1030.87 72.1566 1030.81 72.2289 1030.75 72.2651C1030.69 72.3012 1030.59 72.3012 1030.5 72.3012L1022.72 73.8554L1022.59 74Z" fill="#486581" />
    <path d="M1018.49 68H1018.15C1018.06 67.9125 1018 67.7667 1018 67.6208C1018 67.475 1018.06 67.3583 1018.15 67.2417L1024.01 61.1458C1024.1 61.0583 1024.25 61 1024.41 61C1024.56 61 1024.68 61.0583 1024.8 61.1458C1024.9 61.2333 1024.96 61.35 1024.99 61.4958C1025.02 61.6417 1024.99 61.7583 1024.93 61.875L1018.98 67.9708H1018.49V68Z" fill="#486581" />
    <path d="M1001.6 59.4665L989.379 65.4847C987.226 66.5546 986.393 69.0956 987.469 71.1351L1000.53 95.7093C1001.64 97.7823 1004.28 98.5847 1006.4 97.5482L1018.62 91.53C1020.77 90.4601 1021.61 87.9191 1020.53 85.8796L1007.47 61.3054C1006.36 59.2324 1003.72 58.3966 1001.6 59.4665Z" fill="#FFFEFD" />
    <path d="M1004.9 99L1003.42 98.7674C1002.8 98.568 1002.21 98.2689 1001.73 97.8702C1001.25 97.4714 1000.84 96.9398 1000.56 96.3749L987.557 71.8847C987.247 71.3531 987.041 70.7549 987.006 70.1236C986.972 69.4922 987.075 68.8941 987.316 68.2959C987.695 67.0997 988.52 66.136 989.655 65.5379L1001.77 59.5566C1002.35 59.2575 1002.97 59.0914 1003.62 59.0249C1004.28 58.9585 1004.93 59.0249 1005.55 59.2243C1006.17 59.4237 1006.75 59.7227 1007.23 60.1215C1007.72 60.5202 1008.13 61.0187 1008.44 61.5836L1021.44 86.0737C1021.75 86.6054 1021.96 87.2035 1021.99 87.8349C1022.03 88.4663 1021.92 89.0644 1021.68 89.6625C1021.31 90.8588 1020.48 91.8224 1019.34 92.4206L1007.13 98.5348C1006.41 98.8338 1005.65 99 1004.9 99ZM1004.14 60.1547C1003.55 60.1547 1002.93 60.2544 1002.42 60.5203L990.309 66.6012C989.449 67.0332 988.795 67.7643 988.451 68.6282C988.314 69.0934 988.245 69.5587 988.279 70.0239C988.314 70.4891 988.451 70.9543 988.692 71.3863L1001.7 95.8764C1001.9 96.2752 1002.18 96.6407 1002.56 96.9398C1002.93 97.2388 1003.35 97.4382 1003.79 97.5379C1004.24 97.704 1004.76 97.7705 1005.24 97.7373C1005.72 97.7041 1006.2 97.6044 1006.65 97.405L1018.76 91.324C1019.21 91.1246 1019.59 90.8588 1019.89 90.4933C1020.2 90.1277 1020.45 89.729 1020.62 89.297C1020.76 88.8318 1020.82 88.3666 1020.79 87.9013C1020.76 87.4361 1020.62 86.9709 1020.38 86.5389L1007.37 62.0488C1007.06 61.4839 1006.62 61.0187 1006.03 60.6532C1005.48 60.3541 1004.83 60.1879 1004.14 60.1547Z" fill="#486581" />
    <path d="M1002.53 97C1002.43 97 1002.33 96.9361 1002.23 96.9041C1002.14 96.8401 1002.07 96.7762 1002.04 96.6803C1002.01 96.5524 1001.97 96.4245 1002.04 96.2966C1002.07 96.1687 1002.17 96.0727 1002.27 95.9768L1020.09 87.024C1020.22 86.992 1020.39 86.992 1020.55 87.024C1020.68 87.056 1020.81 87.1519 1020.95 87.2478C1021.01 87.3757 1021.01 87.5356 1020.98 87.6955C1020.95 87.8553 1020.85 87.9832 1020.72 88.0472L1002.89 96.9041L1002.53 97Z" fill="#486581" />
    <path d="M987.688 71C987.55 71 987.413 70.9683 987.309 70.9048C987.206 70.8413 987.103 70.7461 987.069 70.651C987.034 70.5875 987 70.4923 987 70.3971C987 70.3019 987 70.2385 987.034 70.1433C987.069 70.0798 987.138 69.9846 987.172 69.9529C987.241 69.8894 987.309 69.8577 987.413 69.826L1006.08 61.0366C1006.22 61.0049 1006.36 60.9732 1006.49 61.0366C1006.63 61.0684 1006.73 61.1636 1006.84 61.2588C1006.91 61.3222 1006.97 61.3857 1006.97 61.4809C1007.01 61.5761 1007.01 61.6395 1006.97 61.7347C1006.94 61.8299 1006.91 61.8934 1006.84 61.9568C1006.77 62.0203 1006.66 62.052 1006.6 62.052L987.928 70.8731L987.688 71Z" fill="#486581" />
    <path d="M996.5 65C996.786 65 997 64.7857 997 64.5C997 64.2143 996.786 64 996.5 64C996.214 64 996 64.2143 996 64.5C996 64.7857 996.25 65 996.5 65Z" fill="#486581" />
    <path d="M1004.22 85.6445L1003.83 85.4545L998.958 76.1715L998.266 81.7359C998.238 81.8444 998.183 81.953 998.1 82.0073C998.017 82.0887 997.906 82.1159 997.768 82.1159C997.685 82.1159 997.629 82.1159 997.546 82.0887C997.491 82.0616 997.408 82.0073 997.38 81.953C997.325 81.8987 997.325 81.8173 997.325 81.7359C997.325 81.6544 997.352 81.6002 997.38 81.5187L998.183 74.4886C998.183 74.19 998.377 74.1086 998.571 74C998.681 74 998.792 74.0271 998.903 74.0814C999.014 74.1357 999.097 74.2172 999.152 74.2986L1003.72 83.093V78.5058C1003.72 78.3972 1003.75 78.2887 1003.78 78.2072C1003.83 78.1258 1003.92 78.0444 1004 78.0172C1004.11 77.9086 1004.3 77.9087 1004.5 78.1258L1009.18 81.6273L1009.67 76.1715C1009.7 76.0358 1009.79 75.9 1009.87 75.8186C1009.98 75.7372 1010.12 75.6829 1010.26 75.6829C1010.56 75.7915 1010.75 75.9815 1010.64 76.2801L1010.03 82.6316C1010.03 82.713 1009.98 82.7945 1009.95 82.8759C1009.9 82.9573 1009.84 83.0116 1009.76 83.0387H1009.26L1004.69 79.6187V85.2917C1004.69 85.4002 1004.66 85.5088 1004.58 85.6174C1004.5 85.6988 1004.41 85.7802 1004.3 85.7802L1004.22 85.6445Z" fill="#486581" />
    <path d="M1133 105C1136.3 105 1139 102.333 1139 99C1139 95.6667 1136.3 93 1133 93C1129.7 93 1127 95.6667 1127 99C1127 102.333 1129.67 105 1133 105Z" fill="#FFE8D9" />
    <path d="M1137.5 101C1137.5 104.055 1135.03 106.5 1132 106.5C1128.94 106.5 1126.5 104.057 1126.5 101C1126.5 97.9446 1128.97 95.5 1132 95.5C1135.03 95.5 1137.5 97.9446 1137.5 101Z" stroke="#F35627" />
    <path d="M1085.38 15H1077.62C1077.44 15 1077.31 14.9392 1077.17 14.8479C1077.07 14.7567 1077 14.6046 1077 14.4525V7.54753C1077 7.39543 1077.07 7.27376 1077.17 7.15209C1077.27 7.06084 1077.44 7 1077.62 7H1085.38C1085.56 7 1085.69 7.06084 1085.83 7.15209C1085.97 7.24335 1086 7.39543 1086 7.54753V14.4525C1086 14.6046 1085.93 14.7262 1085.83 14.8479C1085.69 14.9392 1085.56 15 1085.38 15ZM1078.23 13.9049H1084.77V8.09506H1078.23V13.9049Z" fill="#F35627" />
    <rect x="1067.4" y="60.1865" width="75.099" height="22.3135" rx="2.5" stroke="#334E68" />
    <path d="M47.8741 19.8633H65.3804C66.4262 19.9088 67.5176 20.1816 68.427 20.6818C69.3819 21.1819 70.1549 21.9095 70.7914 22.8189L73.8835 27.2296C74.5201 28.0481 75.3385 28.7301 76.248 29.2303C77.1574 29.7305 78.2032 29.9578 79.249 30.0033H130.449C131.45 30.0033 132.45 30.1397 133.359 30.549C134.269 30.9582 135.133 31.4584 135.815 32.1859C136.497 32.868 137.088 33.7319 137.452 34.6413C137.816 35.5508 137.998 36.5511 137.998 37.5515V84.7503H40.6897V27.1841C40.6897 25.2743 41.4627 23.41 42.7814 22.0459C44.1455 20.6818 45.9643 19.9088 47.8741 19.8633Z" fill="#FFFEFD" />
    <path d="M137.997 85.5695H40.6896C40.4622 85.5695 40.2803 85.4785 40.0984 85.3421C39.962 85.2057 39.8711 84.9784 39.8711 84.751V27.1848C39.8711 25.0476 40.6896 23.0014 42.1901 21.4554C43.6906 19.9094 45.7368 19.0455 47.874 19H65.3803C66.5625 19.0455 67.7448 19.3638 68.7906 19.9549C69.8364 20.5005 70.7459 21.319 71.428 22.2739L74.5199 26.6846C75.0656 27.4121 75.7932 28.0033 76.6117 28.458C77.4301 28.8672 78.3395 29.14 79.2489 29.14H130.449C132.677 29.14 134.769 30.004 136.36 31.5955C137.906 33.1415 138.816 35.2786 138.816 37.5067V84.751C138.816 84.842 138.816 84.9784 138.77 85.0693C138.725 85.1603 138.679 85.2512 138.589 85.3421C138.498 85.4331 138.407 85.4786 138.316 85.524C138.179 85.5695 138.088 85.5695 137.997 85.5695ZM41.508 83.9325H137.179V37.5067C137.179 35.7333 136.497 34.0054 135.224 32.7777C133.95 31.5045 132.268 30.8225 130.495 30.8225H79.2944C78.1121 30.8225 76.9299 30.5042 75.8841 29.9585C74.8382 29.3674 73.9289 28.5489 73.2468 27.594L70.1547 23.3652C69.6091 22.5922 68.927 21.9556 68.1085 21.5009C67.2901 21.0462 66.3806 20.7734 65.4258 20.7734H47.9194C47.0555 20.7734 46.237 20.9553 45.4185 21.2735C44.6455 21.5918 43.918 22.092 43.3269 22.6832C42.7358 23.2743 42.281 24.0018 41.9627 24.8203C41.6445 25.5933 41.508 26.4572 41.508 27.3212V83.9325V83.9325Z" fill="#F35627" />
    <path d="M86.2051 27.2305H113.581C114.961 27.2305 116.081 28.3498 116.081 29.7305V44.6471C116.081 46.0278 114.961 47.1471 113.581 47.1471H86.2051C84.8244 47.1471 83.7051 46.0278 83.7051 44.6471V29.7305C83.7051 28.3498 84.8244 27.2305 86.2051 27.2305Z" fill="#ECECF0" stroke="#829AB1" />
    <path d="M127.299 39.7021H49.0115C43.1039 39.7021 38.3127 44.478 38.3127 50.3667V97.7081C38.3127 103.597 43.1039 108.373 49.0115 108.373H127.299C133.206 108.373 137.998 103.597 137.998 97.7081V50.3667C137.998 44.478 133.206 39.7021 127.299 39.7021Z" fill="#FFFEFD" />
    <path d="M124.986 43.4404H46.6987C40.7911 43.4404 35.9999 48.1355 35.9999 53.9245V100.465C35.9999 106.254 40.7911 110.949 46.6987 110.949H124.986C130.893 110.949 135.685 106.254 135.685 100.465V53.9245C135.685 48.1355 130.893 43.4404 124.986 43.4404Z" fill="#FFE8D9" />
    <path d="M50.4461 40.2021H128.196C133.792 40.2021 138.321 44.6836 138.321 50.196V96.7797C138.321 102.292 133.792 106.774 128.196 106.774H50.4461C44.8493 106.774 40.3208 102.292 40.3208 96.7797V50.196C40.3208 44.6836 44.8493 40.2021 50.4461 40.2021Z" stroke="#F35627" />
    <path d="M110.061 36.1541H89.943C89.7702 36.1541 89.6319 36.0752 89.4936 35.9568C89.3899 35.8384 89.3208 35.6411 89.3208 35.4438C89.3208 35.2464 89.3899 35.0886 89.4936 34.9307C89.5973 34.8123 89.7702 34.7334 89.943 34.7334H110.061C110.234 34.7334 110.372 34.8123 110.511 34.9307C110.614 35.0491 110.684 35.2464 110.684 35.4438C110.684 35.6411 110.614 35.7989 110.511 35.9568C110.407 36.0752 110.234 36.1541 110.061 36.1541Z" fill="#829AB1" />
    <path d="M108.228 32.242H93.3105C93.1132 32.242 92.9553 32.1631 92.7974 32.0447C92.679 31.9263 92.6001 31.729 92.6001 31.5316C92.6001 31.3343 92.679 31.1765 92.7974 31.0186C92.9158 30.9002 93.1132 30.8213 93.3105 30.8213H108.228C108.425 30.8213 108.583 30.9002 108.741 31.0186C108.86 31.137 108.938 31.3343 108.938 31.5316C108.938 31.729 108.86 31.8868 108.741 32.0447C108.623 32.1631 108.425 32.242 108.228 32.242Z" fill="#829AB1" />
    <path d="M72.6899 95.1614H48.8176C48.5903 95.1614 48.4084 95.0704 48.2265 94.934C48.0901 94.7976 47.9991 94.5702 47.9991 94.3429C47.9991 94.1155 48.0901 93.9337 48.2265 93.7518C48.3629 93.6154 48.5903 93.5244 48.8176 93.5244H72.6899C72.9173 93.5244 73.0991 93.6154 73.281 93.7518C73.4174 93.8882 73.5083 94.1155 73.5083 94.3429C73.5083 94.5702 73.4174 94.7521 73.281 94.934C73.1446 95.1159 72.9173 95.1614 72.6899 95.1614Z" fill="#F35627" />
    <path d="M72.6899 100.573H48.8176C48.5903 100.573 48.4084 100.482 48.2265 100.345C48.0901 100.209 47.9991 99.9814 47.9991 99.754C47.9991 99.5267 48.0901 99.3448 48.2265 99.1629C48.3629 99.0265 48.5903 98.9355 48.8176 98.9355H72.6899C72.9173 98.9355 73.0991 99.0265 73.281 99.1629C73.4174 99.2993 73.5083 99.5267 73.5083 99.754C73.5083 99.9814 73.4174 100.163 73.281 100.345C73.1446 100.482 72.9173 100.573 72.6899 100.573Z" fill="#F35627" />
    <rect x="546.312" y="89.125" width="83.6875" height="79.625" rx="12" fill="#F0F4F8" />
    <path d="M607.164 94.0592C607.164 92.2818 608.605 90.8721 610.352 90.8721C612.129 90.8721 613.539 92.3124 613.539 94.0592C613.539 95.8367 612.098 97.2463 610.352 97.2463C608.605 97.2463 607.164 95.806 607.164 94.0592Z" fill="#F35627" />
    <path d="M559.385 118.76H566.678V143.828H559.385V118.76Z" fill="#FFD0B5" />
    <path d="M571.248 127.861H579.002V143.828H571.248V127.861Z" fill="#FFB088" />
    <path d="M582.689 134.911H589.952V143.737H582.689V134.911Z" fill="#FFE8D9" />
    <path d="M592.087 90.75C590.125 90.75 588.562 92.3436 588.562 94.2742C588.562 96.2356 590.156 97.7985 592.087 97.7985C594.048 97.7985 595.611 96.2049 595.611 94.2742C595.611 92.3436 594.048 90.75 592.087 90.75ZM592.087 91.3629C593.711 91.3629 594.998 92.6807 594.998 94.2742C594.998 95.8985 593.68 97.1856 592.087 97.1856C590.493 97.1856 589.175 95.8678 589.175 94.2742C589.175 92.6807 590.463 91.3629 592.087 91.3629Z" fill="#01182F" />
    <path d="M601.219 90.75C599.258 90.75 597.695 92.3436 597.695 94.2742C597.695 96.2356 599.289 97.7985 601.219 97.7985C603.15 97.7985 604.743 96.2049 604.743 94.2742C604.743 92.3436 603.15 90.75 601.219 90.75ZM601.219 91.3629C602.843 91.3629 604.131 92.6807 604.131 94.2742C604.131 95.8985 602.813 97.1856 601.219 97.1856C599.595 97.1856 598.308 95.8678 598.308 94.2742C598.277 92.6807 599.595 91.3629 601.219 91.3629Z" fill="#01182F" />
    <path d="M557.994 118.639C557.81 118.639 557.688 118.761 557.688 118.945C557.688 119.129 557.688 143.829 557.688 144.013C557.688 144.197 557.81 144.32 557.994 144.32H565.349C565.533 144.32 565.655 144.197 565.655 144.013V118.945C565.655 118.761 565.533 118.639 565.349 118.639H557.994V118.639ZM558.3 119.252H565.042V143.737H558.3C558.3 142.941 558.3 120.018 558.3 119.252Z" fill="#F35627" />
    <path d="M570.038 127.433C569.854 127.433 569.731 127.555 569.731 127.739C569.731 128.26 569.731 143.522 569.731 144.043C569.731 144.226 569.854 144.349 570.038 144.349H577.362C577.546 144.349 577.668 144.226 577.668 144.043V127.739C577.668 127.555 577.546 127.433 577.362 127.433H570.038ZM570.344 128.046H577.056V143.736H570.344C570.344 142.694 570.344 129.057 570.344 128.046Z" fill="#F35627" />
    <path d="M581.254 134.759C581.07 134.759 580.947 134.881 580.947 135.065C580.947 135.341 580.947 143.769 580.947 144.044C580.947 144.228 581.07 144.351 581.254 144.351H588.578C588.762 144.351 588.885 144.228 588.885 144.044V135.065C588.885 134.881 588.762 134.759 588.578 134.759H581.254ZM581.56 135.372H588.272V143.738H581.56C581.56 142.972 581.56 136.138 581.56 135.372Z" fill="#F35627" />
    <rect x="540" y="82" width="81.6875" height="77.625" rx="11" stroke="#F35627" stroke-width="2" />
    <path d="M1094 568H1007V578H1094V568Z" fill="#FFB088" />
    <path d="M1009.35 574.65V565.35H1095.65V574.65H1009.35Z" stroke="#F35627" stroke-width="0.7" />
    <path d="M1153 552H1014V561H1153V552Z" fill="#9FB3C8" />
    <path d="M1009.35 558.65V550.35H1147.65V558.65H1009.35Z" stroke="#01182F" stroke-width="0.7" />
    <path d="M1098 534H1012V544H1098V534Z" fill="#FFD0B5" />
    <path d="M1010.35 542.65V533.35H1095.65V542.65H1010.35Z" stroke="#F35627" stroke-width="0.7" />
    <path d="M1111 515H1013V525H1111V515V515Z" fill="#D9E2EC" />
    <path d="M1001.59 570.681C1001.59 573.831 999.037 576.385 995.887 576.385H995.197C992.046 576.385 989.492 573.831 989.492 570.681V570.681C989.492 567.53 992.046 564.977 995.197 564.977H995.887C999.037 564.977 1001.59 567.53 1001.59 570.681V570.681ZM991.194 570.681C991.194 572.916 993.007 574.729 995.243 574.729H995.933C998.168 574.729 999.981 572.916 999.981 570.681V570.681C999.981 568.445 998.168 566.633 995.933 566.633H995.243C993.007 566.633 991.194 568.445 991.194 570.681V570.681Z" fill="#F35627" stroke="#FFFEFD" stroke-width="0.5" />
    <path d="M1001.59 555.501C1001.59 558.651 999.037 561.205 995.887 561.205H995.197C992.046 561.205 989.492 558.651 989.492 555.501V555.501C989.492 552.351 992.046 549.797 995.197 549.797H995.887C999.037 549.797 1001.59 552.351 1001.59 555.501V555.501ZM991.194 555.501C991.194 557.737 993.007 559.549 995.243 559.549H995.933C998.168 559.549 999.981 557.737 999.981 555.501V555.501C999.981 553.265 998.168 551.453 995.933 551.453H995.243C993.007 551.453 991.194 553.265 991.194 555.501V555.501Z" fill="#F35627" stroke="#FFFEFD" stroke-width="0.5" />
    <path d="M1001.59 538.618C1001.59 541.768 999.037 544.322 995.887 544.322H995.197C992.046 544.322 989.492 541.768 989.492 538.618V538.618C989.492 535.468 992.046 532.914 995.197 532.914H995.887C999.037 532.914 1001.59 535.468 1001.59 538.618V538.618ZM991.194 538.618C991.194 540.854 993.007 542.666 995.243 542.666H995.933C998.168 542.666 999.981 540.854 999.981 538.618V538.618C999.981 536.382 998.168 534.57 995.933 534.57H995.243C993.007 534.57 991.194 536.382 991.194 538.618V538.618Z" fill="#F35627" stroke="#FFFEFD" stroke-width="0.5" />
    <path d="M1001.59 523.208C1001.59 526.358 999.037 528.912 995.887 528.912H995.197C992.046 528.912 989.492 526.358 989.492 523.208V523.208C989.492 520.058 992.046 517.504 995.197 517.504H995.887C999.037 517.504 1001.59 520.058 1001.59 523.208V523.208ZM991.194 523.208C991.194 525.444 993.007 527.256 995.243 527.256H995.933C998.168 527.256 999.981 525.444 999.981 523.208V523.208C999.981 520.972 998.168 519.16 995.933 519.16H995.243C993.007 519.16 991.194 520.972 991.194 523.208V523.208Z" fill="#F35627" stroke="#FFFEFD" stroke-width="0.5" />
    <path d="M1010.35 527.65V518.35H1107.65V527.65H1010.35Z" stroke="#01182F" stroke-width="0.7" />
    <rect x="971.75" y="498.75" width="197.5" height="96.5" rx="11.25" stroke="#F35627" stroke-width="1.5" />
    <rect y="431.605" width="105" height="80" rx="12" fill="#D9E2EC" fill-opacity="0.5" />
    <rect x="7.98462" y="426.5" width="104" height="79" rx="11.5" stroke="#01182F" />
    <path d="M13.9846 504L12.4846 503L48.9456 466L76.8285 483.813L94.8229 473.186L114.485 505.732L112.645 506.819L94.248 475.963L76.8285 486.409L49.3481 468.838L13.9846 504Z" fill="#01182F" />
    <path d="M76.5864 472.435C79.0061 472.435 80.9185 470.483 80.9185 468.103C80.9185 465.722 78.9671 463.771 76.5864 463.771C74.1667 463.771 72.2544 465.722 72.2544 468.103C72.2544 470.483 74.1667 472.435 76.5864 472.435Z" fill="#01182F" />
    <path d="M83.637 493.794H151.485C157.836 493.794 162.985 498.943 162.985 505.294V536.098C162.985 542.45 157.836 547.598 151.485 547.598H83.637C77.2857 547.598 72.137 542.45 72.137 536.098V505.294C72.137 498.943 77.2857 493.794 83.637 493.794Z" fill="#FFE8D9" stroke="#F35627" />
    <path d="M108.655 509.176C107.998 508.911 107.281 509.395 107.281 510.104V530.312C107.281 531.022 107.999 531.506 108.657 531.239L133.639 521.108C134.472 520.77 134.471 519.59 133.637 519.254L108.655 509.176Z" fill="#F35627" />
</svg>