<svg width="375" height="557" viewBox="0 0 375 557" fill="none"
    xmlns="http://www.w3.org/2000/svg">
    <rect x="145.143" y="76.7139" width="58.8571" height="56" rx="8.43956" fill="#F0F4F8"/>
    <path d="M187.94 80.1849C187.94 78.9348 188.953 77.9434 190.181 77.9434C191.431 77.9434 192.423 78.9564 192.423 80.1849C192.423 81.4349 191.41 82.4264 190.181 82.4264C188.953 82.4264 187.94 81.4134 187.94 80.1849Z" fill="#F35627"/>
    <path d="M154.336 97.5557H159.466V115.186H154.336V97.5557Z" fill="#FFD0B5"/>
    <path d="M162.68 103.958H168.133V115.187H162.68V103.958Z" fill="#FFB088"/>
    <path d="M170.726 108.915H175.834V115.122H170.726V108.915Z" fill="#FFE8D9"/>
    <path d="M177.336 77.8574C175.956 77.8574 174.857 78.9782 174.857 80.336C174.857 81.7154 175.978 82.8146 177.336 82.8146C178.715 82.8146 179.814 81.6938 179.814 80.336C179.814 78.9782 178.715 77.8574 177.336 77.8574ZM177.336 78.2885C178.478 78.2885 179.383 79.2153 179.383 80.336C179.383 81.4783 178.456 82.3835 177.336 82.3835C176.215 82.3835 175.288 81.4568 175.288 80.336C175.288 79.2153 176.193 78.2885 177.336 78.2885Z" fill="#01182F"/>
    <path d="M183.759 77.8574C182.379 77.8574 181.28 78.9782 181.28 80.336C181.28 81.7154 182.401 82.8146 183.759 82.8146C185.116 82.8146 186.237 81.6938 186.237 80.336C186.237 78.9782 185.116 77.8574 183.759 77.8574ZM183.759 78.2885C184.901 78.2885 185.806 79.2153 185.806 80.336C185.806 81.4783 184.879 82.3835 183.759 82.3835C182.616 82.3835 181.711 81.4568 181.711 80.336C181.69 79.2153 182.616 78.2885 183.759 78.2885Z" fill="#01182F"/>
    <path d="M153.358 97.4707C153.229 97.4707 153.143 97.5569 153.143 97.6862C153.143 97.8155 153.143 115.187 153.143 115.317C153.143 115.446 153.229 115.532 153.358 115.532H158.531C158.66 115.532 158.747 115.446 158.747 115.317V97.6862C158.747 97.5569 158.66 97.4707 158.531 97.4707H153.358ZM153.574 97.9018H158.316V115.123H153.574C153.574 114.562 153.574 98.4406 153.574 97.9018Z" fill="#F35627"/>
    <path d="M161.829 103.655C161.699 103.655 161.613 103.741 161.613 103.871C161.613 104.237 161.613 114.971 161.613 115.337C161.613 115.466 161.699 115.552 161.829 115.552H166.98C167.109 115.552 167.195 115.466 167.195 115.337V103.871C167.195 103.741 167.109 103.655 166.98 103.655H161.829ZM162.044 104.086H166.764V115.121H162.044C162.044 114.389 162.044 104.798 162.044 104.086Z" fill="#F35627"/>
    <path d="M169.717 108.809C169.588 108.809 169.501 108.895 169.501 109.024C169.501 109.218 169.501 115.145 169.501 115.339C169.501 115.468 169.588 115.555 169.717 115.555H174.868C174.997 115.555 175.084 115.468 175.084 115.339V109.024C175.084 108.895 174.997 108.809 174.868 108.809H169.717ZM169.933 109.24H174.653V115.124H169.933C169.933 114.585 169.933 109.778 169.933 109.24Z" fill="#F35627"/>
    <rect x="140.703" y="71.7033" width="57.4506" height="54.5934" rx="7.73626" stroke="#F35627" stroke-width="1.40659"/>
    <rect x="313.251" y="12.2534" width="130.239" height="43.5101" rx="6.65157" stroke="#9FB3C8" stroke-width="0.700166"/>
    <path d="M337.41 37.1092C337.41 34.789 335.529 32.9082 333.209 32.9082H301.702C299.382 32.9082 297.501 34.7891 297.501 37.1092V67.2163C297.501 69.5365 299.382 71.4173 301.702 71.4173H333.209C335.529 71.4173 337.41 69.5365 337.41 67.2163V37.1092Z" fill="#FFE8D9"/>
    <path d="M414.428 33.2583C416.555 33.2583 418.279 34.9824 418.279 37.1092V116.928C418.279 119.055 416.555 120.779 414.428 120.779H347.913C345.786 120.779 344.062 119.055 344.062 116.928V37.1092C344.062 34.9824 345.786 33.2583 347.913 33.2583H414.428Z" fill="#FFFEFD" stroke="#F35627" stroke-width="0.700166"/>
    <path d="M380.401 48.3115H359.535C359.418 48.3115 359.325 48.2726 359.232 48.2142C359.162 48.1559 359.115 48.0587 359.115 47.9614C359.115 47.8642 359.162 47.7864 359.232 47.7086C359.302 47.6502 359.418 47.6113 359.535 47.6113H380.401C380.517 47.6113 380.611 47.6502 380.704 47.7086C380.774 47.7669 380.821 47.8642 380.821 47.9614C380.821 48.0587 380.774 48.1365 380.704 48.2142C380.611 48.2726 380.517 48.3115 380.401 48.3115Z" fill="#F35627"/>
    <path d="M396.79 52.2433H363.451C363.355 52.2433 363.278 52.2039 363.201 52.1449C363.144 52.0859 363.106 51.9876 363.106 51.8892C363.106 51.7909 363.144 51.7122 363.201 51.6335C363.259 51.5745 363.355 51.5352 363.451 51.5352H396.79C396.886 51.5352 396.962 51.5745 397.039 51.6335C397.097 51.6925 397.135 51.7909 397.135 51.8892C397.135 51.9876 397.097 52.0663 397.039 52.1449C396.962 52.2039 396.866 52.2433 396.79 52.2433Z" fill="#F35627"/>
    <path d="M407.705 70.0166H354.637C354.519 70.0166 354.425 69.9777 354.332 69.9193C354.261 69.861 354.214 69.7637 354.214 69.6665C354.214 69.5692 354.261 69.4914 354.332 69.4137C354.402 69.3553 354.519 69.3164 354.637 69.3164H407.705C407.822 69.3164 407.916 69.3553 408.01 69.4137C408.08 69.472 408.127 69.5692 408.127 69.6665C408.104 69.7637 408.057 69.8415 407.986 69.8999C407.916 69.9582 407.822 70.0166 407.705 70.0166Z" fill="#F35627"/>
    <path d="M409.105 71.417H356.037C355.92 71.417 355.826 71.3781 355.732 71.3197C355.661 71.2614 355.615 71.1641 355.615 71.0669C355.615 70.9696 355.661 70.8918 355.732 70.814C355.802 70.7557 355.92 70.7168 356.037 70.7168H409.105C409.222 70.7168 409.316 70.7557 409.41 70.814C409.48 70.8724 409.527 70.9696 409.527 71.0669C409.504 71.1641 409.457 71.2419 409.387 71.3003C409.316 71.3586 409.222 71.417 409.105 71.417Z" fill="#FFE8D9"/>
    <path d="M409.105 81.2197H356.037C355.92 81.2197 355.826 81.1808 355.732 81.1225C355.661 81.0641 355.615 80.9669 355.615 80.8696C355.615 80.7724 355.661 80.6946 355.732 80.6168C355.802 80.5584 355.92 80.5195 356.037 80.5195H409.105C409.222 80.5195 409.316 80.5584 409.41 80.6168C409.48 80.6751 409.527 80.7724 409.527 80.8696C409.504 80.9669 409.457 81.0447 409.387 81.103C409.316 81.1613 409.222 81.2197 409.105 81.2197Z" fill="#FFE8D9"/>
    <path d="M409.105 94.5224H356.037C355.92 94.5224 355.826 94.4835 355.732 94.4252C355.661 94.3668 355.615 94.2696 355.615 94.1723C355.615 94.0751 355.661 93.9973 355.732 93.9195C355.802 93.8612 355.92 93.8223 356.037 93.8223H409.105C409.222 93.8223 409.316 93.8612 409.41 93.9195C409.48 93.9779 409.527 94.0751 409.527 94.1723C409.504 94.2696 409.457 94.3474 409.387 94.4057C409.316 94.4641 409.222 94.5224 409.105 94.5224Z" fill="#FFE8D9"/>
    <path d="M409.805 108.525H356.737C356.62 108.525 356.526 108.486 356.432 108.428C356.362 108.37 356.315 108.273 356.315 108.175C356.315 108.078 356.362 108 356.432 107.922C356.502 107.864 356.62 107.825 356.737 107.825H409.805C409.922 107.825 410.016 107.864 410.11 107.922C410.181 107.981 410.227 108.078 410.227 108.175C410.204 108.273 410.157 108.35 410.087 108.409C410.016 108.467 409.922 108.525 409.805 108.525Z" fill="#FFE8D9"/>
    <path d="M406.998 82.6201H353.242C353.123 82.6201 353.028 82.5812 352.933 82.5228C352.862 82.4645 352.814 82.3673 352.814 82.27C352.814 82.1728 352.862 82.095 352.933 82.0172C353.004 81.9588 353.123 81.9199 353.242 81.9199H406.998C407.117 81.9199 407.213 81.9588 407.308 82.0172C407.379 82.0755 407.427 82.1728 407.427 82.27C407.427 82.3673 407.379 82.445 407.308 82.5228C407.236 82.5812 407.117 82.6201 406.998 82.6201Z" fill="#F35627"/>
    <path d="M406.998 95.2226H353.242C353.123 95.2226 353.028 95.1837 352.933 95.1254C352.862 95.067 352.814 94.9698 352.814 94.8725C352.814 94.7753 352.862 94.6975 352.933 94.6197C353.004 94.5614 353.123 94.5225 353.242 94.5225H406.998C407.117 94.5225 407.213 94.5614 407.308 94.6197C407.379 94.6781 407.427 94.7753 407.427 94.8725C407.427 94.9698 407.379 95.0476 407.308 95.1254C407.213 95.1837 407.117 95.2226 406.998 95.2226Z" fill="#F35627"/>
    <path d="M405.599 107.825H351.841C351.723 107.825 351.627 107.786 351.532 107.728C351.461 107.67 351.414 107.572 351.414 107.475C351.414 107.378 351.461 107.3 351.532 107.222C351.604 107.164 351.723 107.125 351.841 107.125H405.599C405.718 107.125 405.813 107.164 405.908 107.222C405.979 107.281 406.026 107.378 406.026 107.475C406.003 107.572 405.955 107.65 405.884 107.708C405.789 107.767 405.694 107.806 405.599 107.825Z" fill="#F35627"/>
    <path d="M375.919 112.027C378.23 112.027 380.12 110.137 380.12 107.826C380.12 105.515 378.23 103.625 375.919 103.625C373.609 103.625 371.718 105.492 371.718 107.826C371.718 110.16 373.585 112.027 375.919 112.027Z" fill="#FFE8D9"/>
    <path d="M379.07 109.226C379.07 111.344 377.336 113.077 375.219 113.077C373.079 113.077 371.368 111.367 371.368 109.226C371.368 107.087 373.101 105.375 375.219 105.375C377.336 105.375 379.07 107.109 379.07 109.226Z" stroke="#F35627" stroke-width="0.700166"/>
    <path d="M362.616 86.8209C364.927 86.8209 366.817 84.9305 366.817 82.6199C366.817 80.3094 364.927 78.4189 362.616 78.4189C360.306 78.4189 358.415 80.2861 358.415 82.6199C358.439 84.9538 360.306 86.8209 362.616 86.8209Z" fill="#829AB1"/>
    <path d="M329.708 35.3589C331.835 35.3589 333.559 37.083 333.559 39.2098V69.3169C333.559 71.4437 331.835 73.1678 329.708 73.1678H298.201C296.074 73.1678 294.35 71.4437 294.35 69.3169V39.2098C294.35 37.083 296.074 35.3589 298.201 35.3589H329.708Z" stroke="#486581" stroke-width="0.700166"/>
    <path d="M394.124 0.350083C396.25 0.350083 397.975 2.0742 397.975 4.201V19.6046C397.975 21.7314 396.25 23.4555 394.124 23.4555H362.616C360.489 23.4555 358.765 21.7314 358.765 19.6046V4.20099C358.765 2.07419 360.489 0.350083 362.616 0.350083H394.124Z" fill="#FFFEFD" stroke="#F35627" stroke-width="0.700166"/>
    <rect x="362.616" y="3.50098" width="6.30149" height="5.60132" rx="0.700166" fill="#ECECF0"/>
    <rect x="370.711" y="2.80078" width="6.30149" height="5.60132" rx="0.700166" fill="#FFE8D9"/>
    <path d="M375.929 9.8025H371.094C370.988 9.8025 370.903 9.7599 370.818 9.69601C370.754 9.63211 370.711 9.52563 370.711 9.41914V4.58453C370.711 4.47804 370.754 4.39285 370.818 4.30766C370.881 4.24377 370.988 4.20117 371.094 4.20117H375.929C376.036 4.20117 376.121 4.24377 376.206 4.30766C376.27 4.37155 376.312 4.47804 376.312 4.58453V9.41914C376.312 9.52563 376.27 9.61082 376.206 9.69601C376.121 9.7599 376.014 9.8025 375.929 9.8025ZM371.478 9.03577H375.546V4.96789H371.478V9.03577Z" fill="#F35627"/>
    <path d="M393.391 16.8037H363.255C363.149 16.8037 363.064 16.7648 362.979 16.7064C362.915 16.6481 362.872 16.5508 362.872 16.4536C362.872 16.3564 362.915 16.2786 362.979 16.2008C363.042 16.1424 363.149 16.1035 363.255 16.1035H393.391C393.497 16.1035 393.582 16.1424 393.667 16.2008C393.731 16.2591 393.774 16.3564 393.774 16.4536C393.774 16.5508 393.731 16.6286 393.667 16.7064C393.582 16.7648 393.497 16.8037 393.391 16.8037Z" fill="#F35627"/>
    <path d="M393.391 19.6011H363.255C363.149 19.6011 363.064 19.5624 362.979 19.5043C362.915 19.4462 362.872 19.3495 362.872 19.2527C362.872 19.1559 362.915 19.0785 362.979 19.0011C363.042 18.943 363.149 18.9043 363.255 18.9043H393.391C393.497 18.9043 393.582 18.943 393.667 19.0011C393.731 19.0591 393.774 19.1559 393.774 19.2527C393.774 19.3495 393.731 19.4269 393.667 19.5043C393.582 19.5624 393.497 19.6011 393.391 19.6011Z" fill="#F35627"/>
    <path d="M328.569 56.7138H324.546C324.424 56.7138 324.327 56.6749 324.229 56.6166C324.156 56.5582 324.107 56.461 324.107 56.3638C324.107 56.2665 324.156 56.1887 324.229 56.1109C324.302 56.0526 324.424 56.0137 324.546 56.0137H328.569C328.691 56.0137 328.789 56.0526 328.886 56.1109C328.96 56.1693 329.008 56.2665 329.008 56.3638C329.008 56.461 328.96 56.5388 328.886 56.6166C328.813 56.6749 328.691 56.7138 328.569 56.7138Z" fill="#486581"/>
    <path d="M323.121 51.8124C322.967 51.8124 322.813 51.6353 322.726 51.3569C322.638 51.0785 322.879 50.9014 323.033 50.9014L328.481 49.7119C328.723 49.7119 328.964 49.8891 328.964 50.0662C328.986 50.1168 329.008 50.1928 329.008 50.2687C329.008 50.3446 328.986 50.3952 328.964 50.4711C328.92 50.5217 328.876 50.5724 328.833 50.5977C328.789 50.623 328.723 50.623 328.657 50.623L323.209 51.7112L323.121 51.8124Z" fill="#486581"/>
    <path d="M320.249 47.6111H320.013C319.949 47.5499 319.906 47.4477 319.906 47.3456C319.906 47.2435 319.949 47.1618 320.013 47.0802L324.112 42.8121C324.177 42.7508 324.284 42.71 324.391 42.71C324.498 42.71 324.584 42.7508 324.67 42.8121C324.734 42.8733 324.777 42.955 324.799 43.0571C324.82 43.1592 324.799 43.2409 324.756 43.3226L320.593 47.5907H320.249V47.6111Z" fill="#486581"/>
    <path d="M308.426 41.6362L299.867 45.8499C298.359 46.599 297.776 48.3782 298.53 49.8061L307.672 67.0122C308.45 68.4636 310.298 69.0254 311.782 68.2997L320.341 64.086C321.848 63.3369 322.432 61.5577 321.678 60.1298L312.535 42.9237C311.757 41.4723 309.909 40.8871 308.426 41.6362Z" fill="#FFFEFD"/>
    <path d="M310.731 69.3162L309.695 69.1533C309.262 69.0137 308.852 68.8043 308.515 68.5251C308.178 68.2459 307.889 67.8737 307.696 67.4782L298.591 50.331C298.374 49.9588 298.23 49.54 298.206 49.0979C298.181 48.6558 298.254 48.2371 298.422 47.8183C298.687 46.9807 299.265 46.306 300.06 45.8872L308.539 41.6993C308.948 41.4899 309.382 41.3736 309.84 41.327C310.297 41.2805 310.755 41.327 311.189 41.4666C311.622 41.6062 312.032 41.8156 312.369 42.0948C312.706 42.374 312.995 42.723 313.212 43.1185L322.317 60.2657C322.534 60.6379 322.678 61.0567 322.702 61.4988C322.726 61.9408 322.654 62.3596 322.485 62.7784C322.221 63.616 321.642 64.2907 320.848 64.7095L312.297 68.9905C311.791 69.1999 311.261 69.3162 310.731 69.3162ZM310.201 42.1181C309.791 42.1181 309.358 42.1879 308.997 42.374L300.518 46.6317C299.916 46.9342 299.458 47.446 299.217 48.0509C299.121 48.3767 299.073 48.7024 299.097 49.0281C299.121 49.3538 299.217 49.6796 299.386 49.982L308.491 67.1292C308.635 67.4084 308.828 67.6643 309.093 67.8737C309.358 68.0831 309.647 68.2227 309.96 68.2925C310.273 68.4088 310.635 68.4553 310.972 68.4321C311.309 68.4088 311.646 68.339 311.959 68.1994L320.438 63.9417C320.751 63.8021 321.016 63.616 321.233 63.3601C321.45 63.1041 321.618 62.8249 321.739 62.5225C321.835 62.1967 321.883 61.871 321.859 61.5453C321.835 61.2196 321.739 60.8938 321.57 60.5914L312.465 43.4442C312.248 43.0487 311.935 42.723 311.526 42.4671C311.14 42.2577 310.683 42.1413 310.201 42.1181Z" fill="#486581"/>
    <path d="M309.075 67.9157C309.006 67.9157 308.937 67.8709 308.868 67.8486C308.799 67.8038 308.753 67.759 308.73 67.6918C308.707 67.6023 308.684 67.5127 308.73 67.4232C308.753 67.3336 308.822 67.2665 308.891 67.1993L321.371 60.9309C321.463 60.9085 321.578 60.9085 321.693 60.9309C321.785 60.9532 321.877 61.0204 321.969 61.0876C322.015 61.1771 322.015 61.2891 321.992 61.401C321.969 61.5129 321.9 61.6025 321.808 61.6473L309.328 67.8486L309.075 67.9157Z" fill="#486581"/>
    <path d="M298.682 49.7116C298.586 49.7116 298.49 49.6894 298.418 49.645C298.345 49.6005 298.273 49.5339 298.249 49.4672C298.225 49.4228 298.201 49.3561 298.201 49.2895C298.201 49.2228 298.201 49.1784 298.225 49.1118C298.249 49.0673 298.297 49.0007 298.321 48.9785C298.369 48.934 298.418 48.9118 298.49 48.8896L311.56 42.7356C311.657 42.7134 311.753 42.6912 311.849 42.7356C311.946 42.7578 312.018 42.8245 312.09 42.8911C312.138 42.9356 312.186 42.98 312.186 43.0467C312.21 43.1133 312.21 43.1577 312.186 43.2244C312.162 43.291 312.138 43.3355 312.09 43.3799C312.042 43.4243 311.97 43.4465 311.921 43.4465L298.851 49.6227L298.682 49.7116Z" fill="#486581"/>
    <path d="M304.853 45.5107C305.053 45.5107 305.203 45.3607 305.203 45.1606C305.203 44.9606 305.053 44.8105 304.853 44.8105C304.653 44.8105 304.502 44.9606 304.502 45.1606C304.502 45.3607 304.678 45.5107 304.853 45.5107Z" fill="#486581"/>
    <path d="M310.258 59.9656L309.986 59.8326L306.574 53.3329L306.089 57.2289C306.07 57.3049 306.031 57.3809 305.973 57.4189C305.915 57.476 305.837 57.495 305.74 57.495C305.682 57.495 305.643 57.495 305.585 57.4759C305.546 57.4569 305.488 57.4189 305.469 57.3809C305.43 57.3429 305.43 57.2859 305.43 57.2289C305.43 57.1719 305.449 57.1339 305.469 57.0769L306.031 52.1546C306.031 51.9455 306.167 51.8885 306.302 51.8125C306.38 51.8125 306.457 51.8315 306.535 51.8695C306.613 51.9075 306.671 51.9645 306.71 52.0216L309.909 58.1791V54.9673C309.909 54.8913 309.928 54.8153 309.947 54.7583C309.986 54.7012 310.044 54.6442 310.102 54.6252C310.18 54.5492 310.316 54.5492 310.451 54.7012L313.728 57.1529L314.077 53.3329C314.096 53.2379 314.155 53.1428 314.213 53.0858C314.29 53.0288 314.387 52.9908 314.484 52.9908C314.698 53.0668 314.833 53.1999 314.756 53.4089L314.329 57.856C314.329 57.9131 314.29 57.9701 314.271 58.0271C314.232 58.0841 314.193 58.1221 314.135 58.1411H313.786L310.587 55.7465V59.7185C310.587 59.7946 310.568 59.8706 310.51 59.9466C310.451 60.0036 310.393 60.0606 310.316 60.0606L310.258 59.9656Z" fill="#486581"/>
    <path d="M367.086 10.5027H361.647C361.527 10.5027 361.432 10.4601 361.336 10.3962C361.264 10.3323 361.216 10.2258 361.216 10.1193V5.28473C361.216 5.17824 361.264 5.09305 361.336 5.00786C361.408 4.94396 361.527 4.90137 361.647 4.90137H367.086C367.206 4.90137 367.302 4.94396 367.398 5.00786C367.493 5.07175 367.517 5.17824 367.517 5.28473V10.1193C367.517 10.2258 367.469 10.311 367.398 10.3962C367.302 10.4601 367.206 10.5027 367.086 10.5027ZM362.078 9.73597H366.655V5.66809H362.078V9.73597Z" fill="#F35627"/>
    <rect x="354.495" y="42.1411" width="52.5817" height="15.6231" rx="1.75041" stroke="#334E68" stroke-width="0.700166"/>
    <path d="M-21.3387 6.92285H-8.56919C-7.80634 6.95602 -7.01029 7.15503 -6.34694 7.51987C-5.65042 7.88472 -5.08659 8.41539 -4.62224 9.07875L-2.36683 12.296C-1.90248 12.893 -1.30548 13.3905 -0.642128 13.7554C0.021225 14.1202 0.784071 14.2861 1.54693 14.3192H38.8936C39.6233 14.3192 40.353 14.4187 41.0164 14.7172C41.6797 15.0157 42.3099 15.3806 42.8074 15.9113C43.3049 16.4088 43.7361 17.039 44.0014 17.7023C44.2668 18.3657 44.3995 19.0954 44.3995 19.8251V54.253H-26.5792V12.2628C-26.5792 10.8698 -26.0153 9.50993 -25.0535 8.5149C-24.0584 7.51987 -22.7318 6.95602 -21.3387 6.92285Z" fill="#FFFEFD"/>
    <path d="M44.3994 54.8503H-26.5793C-26.7451 54.8503 -26.8778 54.784 -27.0104 54.6845C-27.1099 54.585 -27.1763 54.4192 -27.1763 54.2533V12.2631C-27.1763 10.7043 -26.5793 9.21172 -25.4847 8.08402C-24.3902 6.95632 -22.8977 6.32614 -21.3388 6.29297H-8.56927C-7.70691 6.32614 -6.84456 6.55831 -6.0817 6.98949C-5.31885 7.3875 -4.65548 7.98452 -4.15797 8.68104L-1.90259 11.8983C-1.50458 12.429 -0.973869 12.8602 -0.376852 13.1918C0.220165 13.4903 0.883492 13.6893 1.54684 13.6893H38.8935C40.5188 13.6893 42.0445 14.3195 43.2053 15.4804C44.333 16.6081 44.9964 18.167 44.9964 19.7922V54.2533C44.9964 54.3197 44.9964 54.4192 44.9632 54.4855C44.9301 54.5518 44.8969 54.6182 44.8306 54.6845C44.7642 54.7508 44.6979 54.784 44.6316 54.8172C44.5321 54.8503 44.4657 54.8503 44.3994 54.8503ZM-25.9823 53.6563H43.8024V19.7922C43.8024 18.4986 43.3048 17.2383 42.3761 16.3428C41.4474 15.4141 40.2203 14.9165 38.9268 14.9165H1.58C0.717646 14.9165 -0.144711 14.6844 -0.907566 14.2864C-1.67042 13.8552 -2.33375 13.2582 -2.83126 12.5616L-5.08668 9.47706C-5.48469 8.91321 -5.9822 8.44886 -6.57922 8.11719C-7.17623 7.78551 -7.83959 7.5865 -8.53611 7.5865H-21.3056C-21.9358 7.5865 -22.5328 7.71918 -23.1299 7.95135C-23.6937 8.18352 -24.2244 8.54837 -24.6556 8.97955C-25.0867 9.41072 -25.4184 9.94141 -25.6506 10.5384C-25.8828 11.1023 -25.9823 11.7325 -25.9823 12.3626V53.6563Z" fill="#F35627"/>
    <path d="M26.5892 12.2964C27.5963 12.2964 28.4128 13.1128 28.4128 14.1199V25.0005C28.4128 26.0076 27.5963 26.824 26.5892 26.824H6.62076C5.61363 26.824 4.7972 26.0076 4.7972 25.0005V14.1199C4.7972 13.1128 5.61364 12.2964 6.62076 12.2964H26.5892Z" fill="#ECECF0" stroke="#829AB1" stroke-width="0.729424"/>
    <path d="M36.5955 21.3936H-20.5091C-24.8182 21.3936 -28.313 24.8772 -28.313 29.1725V63.7045C-28.313 67.9998 -24.8182 71.4835 -20.5091 71.4835H36.5955C40.9046 71.4835 44.3994 67.9998 44.3994 63.7045V29.1725C44.3994 24.8772 40.9046 21.3936 36.5955 21.3936Z" fill="#FFFEFD"/>
    <path d="M34.9084 24.1201H-22.1961C-26.5053 24.1201 -30.0001 27.5448 -30.0001 31.7674V65.7149C-30.0001 69.9376 -26.5053 73.3622 -22.1961 73.3622H34.9084C39.2176 73.3622 42.7124 69.9376 42.7124 65.7149V31.7674C42.7124 27.5448 39.2176 24.1201 34.9084 24.1201Z" fill="#FFE8D9"/>
    <path d="M-19.4627 21.7583H37.2496C41.332 21.7583 44.6352 25.0271 44.6352 29.048V63.0273C44.6352 67.0482 41.332 70.317 37.2496 70.317H-19.4627C-23.5451 70.317 -26.8483 67.0482 -26.8483 63.0273V29.048C-26.8483 25.0271 -23.5451 21.7583 -19.4627 21.7583Z" stroke="#F35627" stroke-width="0.729424"/>
    <path d="M24.0221 18.8049H9.34732C9.22125 18.8049 9.12038 18.7473 9.01952 18.6609C8.94388 18.5746 8.89345 18.4306 8.89345 18.2867C8.89345 18.1428 8.94388 18.0276 9.01952 17.9125C9.09516 17.8261 9.22125 17.7686 9.34732 17.7686H24.0221C24.1482 17.7686 24.249 17.8261 24.3499 17.9125C24.4255 17.9988 24.476 18.1428 24.476 18.2867C24.476 18.4306 24.4255 18.5458 24.3499 18.6609C24.2742 18.7473 24.1482 18.8049 24.0221 18.8049Z" fill="#829AB1"/>
    <path d="M22.6849 15.9523H11.8036C11.6597 15.9523 11.5445 15.8947 11.4294 15.8084C11.343 15.722 11.2855 15.5781 11.2855 15.4342C11.2855 15.2902 11.343 15.1751 11.4294 15.0599C11.5158 14.9736 11.6597 14.916 11.8036 14.916H22.6849C22.8288 14.916 22.944 14.9736 23.0591 15.0599C23.1455 15.1463 23.203 15.2902 23.203 15.4342C23.203 15.5781 23.1455 15.6932 23.0591 15.8084C22.9727 15.8947 22.8288 15.9523 22.6849 15.9523Z" fill="#829AB1"/>
    <rect x="-19" y="486.36" width="62.9417" height="47.9556" rx="7.19334" fill="#D9E2EC" fill-opacity="0.5"/>
    <rect x="-14.2137" y="483.3" width="62.3422" height="47.3561" rx="6.89361" stroke="#01182F" stroke-width="0.599445"/>
    <path d="M-10.617 529.756L-11.5162 529.157L10.3402 506.978L27.0544 517.655L37.8411 511.285L49.6272 530.795L48.5244 531.446L37.4965 512.95L27.0544 519.212L10.5814 508.679L-10.617 529.756Z" fill="#01182F"/>
    <path d="M26.9093 510.835C28.3598 510.835 29.5061 509.666 29.5061 508.238C29.5061 506.811 28.3364 505.642 26.9093 505.642C25.4589 505.642 24.3125 506.811 24.3125 508.238C24.3125 509.666 25.4589 510.835 26.9093 510.835Z" fill="#01182F"/>
    <path d="M71.8067 523.639C75.6139 523.639 78.7003 526.725 78.7003 530.532V548.998C78.7003 552.805 75.6139 555.891 71.8067 555.891H31.1357C27.3285 555.891 24.2421 552.805 24.2421 548.998V530.532C24.2421 526.725 27.3285 523.639 31.1357 523.639H71.8067Z" fill="#FFE8D9" stroke="#F35627" stroke-width="0.599445"/>
    <path d="M46.1328 532.86C45.7388 532.701 45.3091 532.991 45.3091 533.416V545.529C45.3091 545.955 45.7396 546.245 46.1338 546.085L61.1092 540.012C61.6086 539.81 61.6079 539.102 61.1082 538.901L46.1328 532.86Z" fill="#F35627"/>
    <path d="M362.477 497.061H297.774V504.498H362.477V497.061Z" fill="#FFB088"/>
    <path d="M299.522 502.006V495.089H363.705V502.006H299.522Z" stroke="#F35627" stroke-width="0.520603"/>
    <path d="M406.357 485.161H302.98V491.855H406.357V485.161Z" fill="#9FB3C8"/>
    <path d="M299.522 490.107V483.934H402.378V490.107H299.522Z" stroke="#01182F" stroke-width="0.520603"/>
    <path d="M365.452 471.774H301.492V479.212H365.452V471.774Z" fill="#FFD0B5"/>
    <path d="M300.265 478.207V471.291H363.705V478.207H300.265Z" stroke="#F35627" stroke-width="0.520603"/>
    <path d="M375.121 457.644H302.236V465.081H375.121V457.644Z" fill="#D9E2EC"/>
    <path d="M293.751 499.054C293.751 501.397 291.852 503.296 289.509 503.296H288.995C286.652 503.296 284.753 501.397 284.753 499.054C284.753 496.711 286.652 494.812 288.995 494.812H289.509C291.852 494.812 293.751 496.711 293.751 499.054ZM286.019 499.054C286.019 500.717 287.367 502.064 289.03 502.064H289.543C291.206 502.064 292.553 500.717 292.553 499.054C292.553 497.391 291.206 496.043 289.543 496.043H289.03C287.367 496.043 286.019 497.391 286.019 499.054Z" fill="#F35627" stroke="#FFFEFD" stroke-width="0.371859"/>
    <path d="M293.751 487.765C293.751 490.108 291.852 492.007 289.509 492.007H288.995C286.652 492.007 284.753 490.108 284.753 487.765C284.753 485.422 286.652 483.522 288.995 483.522H289.509C291.852 483.522 293.751 485.422 293.751 487.765ZM286.019 487.765C286.019 489.427 287.367 490.775 289.03 490.775H289.543C291.206 490.775 292.553 489.427 292.553 487.765C292.553 486.102 291.206 484.754 289.543 484.754H289.03C287.367 484.754 286.019 486.102 286.019 487.765Z" fill="#F35627" stroke="#FFFEFD" stroke-width="0.371859"/>
    <path d="M293.751 475.209C293.751 477.552 291.852 479.451 289.509 479.451H288.995C286.652 479.451 284.753 477.552 284.753 475.209C284.753 472.866 286.652 470.967 288.995 470.967H289.509C291.852 470.967 293.751 472.866 293.751 475.209ZM286.019 475.209C286.019 476.872 287.367 478.22 289.03 478.22H289.543C291.206 478.22 292.553 476.872 292.553 475.209C292.553 473.546 291.206 472.198 289.543 472.198H289.03C287.367 472.198 286.019 473.546 286.019 475.209Z" fill="#F35627" stroke="#FFFEFD" stroke-width="0.371859"/>
    <path d="M293.751 463.748C293.751 466.091 291.852 467.99 289.509 467.99H288.995C286.652 467.99 284.753 466.091 284.753 463.748C284.753 461.405 286.652 459.506 288.995 459.506H289.509C291.852 459.506 293.751 461.405 293.751 463.748ZM286.019 463.748C286.019 465.411 287.367 466.759 289.03 466.759H289.543C291.206 466.759 292.553 465.411 292.553 463.748C292.553 462.085 291.206 460.737 289.543 460.737H289.03C287.367 460.737 286.019 462.085 286.019 463.748Z" fill="#F35627" stroke="#FFFEFD" stroke-width="0.371859"/>
    <path d="M300.265 467.052V460.135H372.629V467.052H300.265Z" stroke="#01182F" stroke-width="0.520603"/>
    <rect x="271.558" y="445.558" width="146.884" height="71.7688" rx="8.36683" stroke="#F35627" stroke-width="1.11558"/>
</svg>
    